<?xml version="1.0" encoding="UTF-8"?>
<svg id="Layer_1" xmlns="http://www.w3.org/2000/svg" version="1.1" viewBox="0 0 512 512">
  <!-- Generator: Adobe Illustrator 29.0.1, SVG Export Plug-In . SVG Version: 2.1.0 Build 192)  -->
  <defs>
    <style>
      .st0 {
        fill: #063;
      }

      .st1 {
        fill: #c00;
      }
    </style>
  </defs>
  <g>
    <polygon class="st1" points=".5 382 511.5 383 511.5 511.5 .5 512 .5 382"/>
    <path d="M1,382.5l510,1v127.5l-510,.5v-129M0,381.5v131l512-.5v-129.5L0,381.5h0Z"/>
  </g>
  <polygon class="st0" points="256 150.8 136.5 333.8 211.2 324.3 201.8 362.5 257.2 362.5 313 362.5 303.5 323.3 378.2 333.3 256 150.8"/>
  <g>
    <polygon class="st1" points=".5 .5 511.5 1.5 511.5 130 .5 130.5 .5 .5"/>
    <path d="M1,1l510,1v127.5l-510,.5V1M0,0v131l512-.5V1L0,0h0Z"/>
  </g>
</svg>