<?xml version="1.0" encoding="UTF-8"?>
<svg id="lebanon_title" xmlns="http://www.w3.org/2000/svg" version="1.1" viewBox="0 0 2000 1091">
  <!-- Generator: Adobe Illustrator 29.0.1, SVG Export Plug-In . SVG Version: 2.1.0 Build 192)  -->
  <defs>
    <style>
      .st0 {
        fill: #030;
        font-family: BebasNeue-Regular, 'Bebas Neue';
        font-size: 732.4px;
      }

      .st0, .st1 {
        isolation: isolate;
      }

      .st2 {
        fill: #f33;
      }
    </style>
  </defs>
  <g>
    <path class="st2" d="M2003.3,691.9c-10.2-99.4-67.4-420.2-66.2-439.2,6.4,0,13.1,2.6,19.2.1,11.6-5.5,36.8-89.2,46.3-123.4,3.2-9.9,3.9-16.5-6.4-22-9.9-7.2-20.4-13.2-31.1-19-37.3-18.7-55.1-32.3-64-74.4-33.7-65.5-104.6,139.4-87,164.8,1.9,5.7,4,10.7,8.5,14.9,14.2,13,19.8,28.9,24.7,47.3,12.7,51.6,54.2,299.4,68.2,370.4,1.5,7.3,6.1,19.4,2.6,26.4-27.8,9.1-58,6.9-87,7.1-44.7,0-89.5.4-134.3.6,4.8-109.9-13.8-195.3-73.5-288.5h-2.3c-17.3,43.6-33.9,87.6-51.2,131.2-3.2,7.6-6.9,16.2-1.1,23.5,28.3,42.2,51.9,85.3,68.1,133.8h-299.2c5.2-101.2-14.1-206-75.6-288.5-13,32-25,64.4-37.6,96.5-4.7,12.2-9.7,24.4-14.3,36.7-1.9,5.6-5.2,11-3.6,16.9,28.1,43.2,58,87.8,70.3,138.5-138.9-1.6-277.8-4.7-416.7-4.5.3-2.6-1.6-7.7-2.8-9.2-16.1-30.5-21.2-61.2-23.8-95.2-5.2-72.8-7.3-145.6-10.1-218.5-3.7-95.4-3.8-195-66.2-271.8-23.8,49.9-44.8,101.2-65.3,152.5,48.4,78,49.4,173.6,50.8,263.9,2,59.2,3.6,118.5,9.4,177.5,5.6,69.9,22.6,171.7,111.4,172.2,380.2,13.8,761.1,3.7,1141.5,6.6-.6-42.4,2-85-1.7-127.2h0Z"/>
    <path class="st2" d="M640.6,496.4h0c-15.5-29.6-30.5-59.5-44.8-89.6h-2.3c-17.1,50.2-34.2,100.5-51.1,150.8-6.1,13.7-4.4,22.8,2.8,35.4,5.7,12,11.2,24,16.8,36,31.8,68.4,71.3,156.5,18,224.2-86.5,95.8-252.5,98.5-368.9,65.9-45.2-16.3-100.8-41.2-115.5-91.2-14.2-75.1,5.6-149.1,44.8-213.6,8.9-21.2,46.3-78.2,37.2-97.1-8.4-7.4-21.1-14.4-31.2-5.9C76.9,608,20.7,706.5,6.7,804.6c-42.7,250,189.1,306.9,389,280.7,103.1-7.3,222.9-47.3,259-154.5,14.5-49.8,8.8-79.2,11-146.3,0-50.6.5-101.1.8-151.7.7-49.4,5.8-94.5-25.9-136.4h0Z"/>
    <path class="st2" d="M1259.6,256.1c7-7.9,73.5-138.3,75.6-147.1-49.2-23.7-96.8-51.8-146.9-73.2-13.5,20.5-63.8,118-74.4,145.7,20.3,11.1,117.6,60.5,145.7,74.6h0Z"/>
    <path class="st2" d="M240.2,349.6c46.2,22.8,91.3,49,138.6,69.4,23.7-48.3,49.4-95.7,73.5-143.8-3.8-8.5-120.2-66.2-146.8-76.5-25.4,48.4-51.3,96.6-74.6,146,3.1,1.7,6.2,3.3,9.3,4.9Z"/>
    <path class="st2" d="M1485.3,871.2c-23.4,49.4-51.8,96.8-73.4,147,14.1,9.1,118.1,63,146.9,72.8,20.8-31.7,71.6-123,74.6-136.8-4.8-2.6-102.4-60.2-148.1-83Z"/>
  </g>
  <g class="st1">
    <g class="st1">
      <text class="st0" transform="translate(-26.6 867.7) scale(1 1)"><tspan x="0" y="0">LEBANON</tspan></text>
    </g>
  </g>
</svg>